<svg width="1em" height="1em" viewBox="0 0 24 24" xmlns="http://www.w3.org/2000/svg" role="img" aria-label="Idle">
  <title>Idle</title>
  <path d="M9.064 3.344a4.578 4.578 0 012.285-.312c1 .115 1.891.54 2.673 1.275.01.01.024.017.037.021a.09.09 0 00.043 0 4.55 4.55 0 013.046.275l.047.022.116.057a4.581 4.581 0 012.188 2.399c.209.51.313 1.041.315 1.595a4.24 4.24 0 01-.134 1.223.123.123 0 00.03.115c.594.607.988 1.33 1.183 2.17.289 1.425-.007 2.71-.887 3.854l-.136.166a4.548 4.548 0 01-2.201 1.388.123.123 0 00-.081.076c-.191.551-.383 1.023-.74 1.494-.9 1.187-2.222 1.846-3.711 1.838-1.187-.006-2.239-.44-3.157-1.302a.107.107 0 00-.105-.024c-.388.125-.78.143-1.204.138a4.441 4.441 0 01-1.945-.466 4.544 4.544 0 01-1.61-1.335c-.152-.202-.303-.392-.414-.617a5.81 5.81 0 01-.37-.961 4.582 4.582 0 01-.014-2.298.124.124 0 00.006-.056.085.085 0 00-.027-.048 4.467 4.467 0 01-1.034-1.651 3.896 3.896 0 01-.251-1.192 5.189 5.189 0 01.141-1.6c.337-1.112.982-1.985 1.933-2.618.212-.141.413-.251.601-.33.215-.089.43-.164.646-.227a.098.098 0 00.065-.066 4.51 4.51 0 01.829-1.615 4.535 4.535 0 011.837-1.388z" fill="none" stroke="#B7C0D4" stroke-opacity="1" stroke-width="1.15"/>
  <g transform="translate(1.1 0)" stroke="#C9D1E6" stroke-width="1.9" stroke-linecap="round" stroke-linejoin="round" fill="none">
    <g opacity="1">
      <path d="M8.3 9.4 6.9 10.8 8.3 12.2"/>
      <line x1="10.9" y1="13.2" x2="14.9" y2="13.2"/>
      <animate attributeName="opacity" values="1;0" dur="0.8s" fill="freeze"/>
    </g>
  </g>
  <g transform="translate(1.1 0)" fill="#C9D1E6">
    <circle cx="10.9" cy="13.2" r="0.72" opacity="0">
      <animate attributeName="opacity" values="0;1" dur="0.25s" begin="0.5s" fill="freeze"/>
      <animate attributeName="opacity" values="1;0.25;1" dur="1.35s" begin="1.2s" repeatCount="indefinite"/>
      <animate attributeName="r" values="0.72;0.88;0.72" dur="1.35s" begin="1.2s" repeatCount="indefinite"/>
    </circle>
    <circle cx="12.7" cy="13.2" r="0.72" opacity="0">
      <animate attributeName="opacity" values="0;1" dur="0.25s" begin="0.75s" fill="freeze"/>
      <animate attributeName="opacity" values="1;0.25;1" dur="1.35s" begin="1.45s" repeatCount="indefinite"/>
      <animate attributeName="r" values="0.72;0.88;0.72" dur="1.35s" begin="1.45s" repeatCount="indefinite"/>
    </circle>
    <circle cx="14.5" cy="13.2" r="0.72" opacity="0">
      <animate attributeName="opacity" values="0;1" dur="0.25s" begin="1s" fill="freeze"/>
      <animate attributeName="opacity" values="1;0.25;1" dur="1.35s" begin="1.7s" repeatCount="indefinite"/>
      <animate attributeName="r" values="0.72;0.88;0.72" dur="1.35s" begin="1.7s" repeatCount="indefinite"/>
    </circle>
  </g>
</svg>
